<?xml version="1.0" encoding="iso-8859-1"?>
<!-- Generator: Adobe Illustrator 19.0.0, SVG Export Plug-In . SVG Version: 6.00 Build 0)  -->
<svg xmlns="http://www.w3.org/2000/svg" xmlns:xlink="http://www.w3.org/1999/xlink" version="1.1" id="Layer_1" x="0px" y="0px" viewBox="0 0 512.001 512.001" style="enable-background:new 0 0 512.001 512.001;" xml:space="preserve" width="512px" height="512px">
<g>
	<g>
		<g>
			<path d="M132.794,424.529l-23.046,23.045c-3.143,3.143-3.143,8.238,0,11.381c1.571,1.571,3.631,2.357,5.69,2.357     s4.119-0.786,5.69-2.357l23.046-23.046c3.143-3.143,3.143-8.238,0-11.38C141.032,421.386,135.936,421.386,132.794,424.529z" fill="#FFFFFF"/>
			<path d="M114.981,426.74c3.143-3.143,3.143-8.237,0-11.38l-23.045-23.046c-3.142-3.144-8.237-3.143-11.38,0     c-3.143,3.143-3.143,8.237,0,11.38l23.045,23.046c1.571,1.572,3.631,2.357,5.69,2.357     C111.349,429.098,113.409,428.312,114.981,426.74z" fill="#FFFFFF"/>
			<path d="M169.956,394.18c-3.142-3.143-8.237-3.143-11.38,0c-3.143,3.143-3.143,8.237,0,11.38l23.045,23.046     c1.571,1.572,3.631,2.357,5.69,2.357s4.119-0.785,5.69-2.357c3.143-3.143,3.143-8.237,0-11.38L169.956,394.18z" fill="#FFFFFF"/>
			<path d="M475.074,361.074v-79.115c0-120.798-98.276-219.074-219.074-219.074h-48.911c-9.197-26.285-34.233-45.197-63.618-45.197     c-37.158,0-67.39,30.231-67.39,67.391c0,37.158,30.231,67.389,67.39,67.389c16.594,0,31.796-6.041,43.552-16.023     c5.346,8.76,8.237,18.887,8.237,29.261c0,30.977-25.201,56.179-56.179,56.179c-56.328,0-102.155,45.827-102.155,102.156v37.034     C15.557,367.723,0,387.685,0,411.213v30.603c0,28.947,23.55,52.497,52.499,52.497h407.001c28.948,0,52.502-23.55,52.502-52.497     v-30.603C512,387.686,496.442,367.724,475.074,361.074z M143.47,136.371c-28.283,0-51.295-23.01-51.295-51.294     c0-28.284,23.01-51.296,51.295-51.296c28.284,0,51.296,23.01,51.296,51.296C194.766,113.361,171.755,136.371,143.47,136.371z      M53.02,324.038c0-47.454,38.606-86.061,86.06-86.061c39.852,0,72.274-32.422,72.274-72.274c0-14.882-4.612-29.377-13.088-41.472     c7.915-11.045,12.595-24.56,12.595-39.155c0-2.057-0.107-4.088-0.289-6.099H256c111.923,0,202.979,91.056,202.979,202.979v76.757     H53.02V324.038z M495.906,441.816h-0.001c0,20.073-16.332,36.402-36.407,36.402h-407c-20.074,0.001-36.404-16.33-36.404-36.402     v-30.603c0-20.073,16.33-36.404,36.404-36.404h407.001c20.075,0,36.407,16.33,36.407,36.404V441.816z" fill="#FFFFFF"/>
			<path d="M48.517,405.703c-3.143-3.143-8.238-3.143-11.38,0c-3.143,3.143-3.143,8.238,0,11.38l23.045,23.046     c1.571,1.571,3.631,2.357,5.69,2.357c2.06,0,4.119-0.785,5.69-2.357c3.143-3.143,3.143-8.239,0-11.38L48.517,405.703z" fill="#FFFFFF"/>
			<path d="M422.783,424.529c-3.143-3.143-8.238-3.143-11.38,0c-3.144,3.143-3.144,8.237-0.001,11.38l23.045,23.046     c1.572,1.572,3.631,2.357,5.691,2.357c2.059,0,4.119-0.786,5.69-2.357c3.144-3.143,3.144-8.237,0.001-11.381L422.783,424.529z" fill="#FFFFFF"/>
			<path d="M394.847,401.483l-23.045,23.046c-3.143,3.143-3.143,8.238,0.001,11.38c1.571,1.572,3.631,2.357,5.69,2.357     s4.119-0.785,5.691-2.357l23.045-23.045c3.143-3.143,3.143-8.239-0.001-11.38C403.086,398.339,397.991,398.34,394.847,401.483z" fill="#FFFFFF"/>
			<path d="M466.42,397.779l-23.045,23.046c-3.143,3.143-3.143,8.238,0.001,11.38c1.571,1.572,3.631,2.357,5.69,2.357     s4.119-0.785,5.691-2.357l23.045-23.046c3.143-3.143,3.143-8.238-0.001-11.381C474.659,394.635,469.563,394.636,466.42,397.779z" fill="#FFFFFF"/>
			<path d="M222.843,424.529l-23.045,23.045c-3.143,3.143-3.143,8.238,0,11.381c1.571,1.571,3.631,2.357,5.69,2.357     c2.06,0,4.119-0.786,5.69-2.357l23.046-23.046c3.143-3.143,3.143-8.238,0-11.38C231.081,421.386,225.985,421.386,222.843,424.529     z" fill="#FFFFFF"/>
			<path d="M341.475,424.529c-3.144-3.143-8.24-3.143-11.381,0c-3.144,3.143-3.144,8.237-0.001,11.38l23.045,23.046     c1.572,1.572,3.631,2.357,5.691,2.357c2.059,0,4.119-0.786,5.69-2.357c3.144-3.143,3.144-8.237,0.001-11.381L341.475,424.529z" fill="#FFFFFF"/>
			<path d="M311.44,405.703l-23.045,23.046c-3.143,3.143-3.143,8.239,0.001,11.38c1.571,1.572,3.631,2.357,5.69,2.357     s4.119-0.785,5.691-2.357l23.045-23.046c3.143-3.143,3.143-8.239-0.001-11.38C319.679,402.559,314.583,402.56,311.44,405.703z" fill="#FFFFFF"/>
			<path d="M245.967,394.18c-3.143-3.143-8.238-3.143-11.38,0c-3.143,3.143-3.143,8.239,0,11.38l23.045,23.046     c1.572,1.571,3.632,2.357,5.691,2.357s4.119-0.785,5.691-2.357c3.143-3.143,3.143-8.238,0-11.38L245.967,394.18z" fill="#FFFFFF"/>
		</g>
	</g>
</g>
<g>
</g>
<g>
</g>
<g>
</g>
<g>
</g>
<g>
</g>
<g>
</g>
<g>
</g>
<g>
</g>
<g>
</g>
<g>
</g>
<g>
</g>
<g>
</g>
<g>
</g>
<g>
</g>
<g>
</g>
</svg>
